<svg width="800" height="800" viewBox="0 0 800 800" fill="none" xmlns="http://www.w3.org/2000/svg">
<path d="M469.95 345.9C402.5 346 345.25 387.5 317.9 446.9L315.9 450.9L311.65 451.3C249.3 455.8 200 509.7 200 575.3C200 643.8 253.6 700 320 700H610C659.75 700 700 657.85 700 606.65C700.058 588.417 694.725 570.573 684.673 555.36C674.62 540.148 660.296 528.246 643.5 521.15L639.2 519.35L638.7 514.75C634.5 421.25 561.1 346 469.95 345.9ZM469.95 395.9C533.55 396 585.75 448.4 588.85 517V518.55L592.65 553.8L624 567.2C639.25 573.7 650 587.85 650 606.65C650 631.65 631.5 650 610.05 650H319.9C281.9 650 250 617.75 250 575.3C250 534.8 279.55 503.7 315.15 501.05L348.75 498.75L363.2 467.95V467.75C383.15 424.45 422.85 396 469.7 395.9H469.95Z" fill="white"/>
<path d="M475 50C441.755 50.0452 409.21 59.5591 381.176 77.4282C353.142 95.2973 330.777 120.782 316.7 150.9C271.475 146.6 226.35 160.055 190.865 188.42C155.38 216.786 132.317 257.839 126.55 302.9C102.856 308.733 82.1119 323.029 68.2256 343.094C54.3393 363.159 48.269 387.61 51.1579 411.84C54.0469 436.07 65.6957 458.408 83.9104 474.646C102.125 490.884 125.648 499.901 150.05 500H163.5C171.895 481.435 183.933 464.48 199 450H149.9C121.7 450 99.9 428.2 99.9 400C99.8357 388.77 103.592 377.852 110.552 369.039C117.511 360.226 127.261 354.041 138.2 351.5L171.7 343.35L176.1 309.2C180.068 277.005 196.454 247.633 221.766 227.346C247.078 207.059 279.314 197.462 311.6 200.6L346.9 204.2L361.9 172.05C371.933 150.537 387.894 132.332 407.908 119.57C427.923 106.809 451.163 100.02 474.9 100C491.326 99.9138 507.606 103.086 522.799 109.332C537.991 115.578 551.795 124.775 563.41 136.39C575.025 148.006 584.222 161.809 590.468 177.001C596.714 192.194 599.886 208.474 599.8 224.9V225C599.8 231.35 599.2 237.65 598.15 243.95L590.15 292.4L638.4 301.4C655.672 304.463 671.308 313.526 682.55 326.991C693.792 340.456 699.919 357.459 699.85 375C699.85 417 666.85 450 624.85 450H599.95V500H624.95C656.058 499.893 686.009 488.19 708.949 467.178C731.889 446.167 746.17 417.356 749.001 386.377C751.832 355.397 743.01 324.475 724.258 299.653C705.507 274.832 678.174 257.894 647.6 252.15C649.1 243.15 649.85 234.1 649.95 225C649.95 178.587 631.513 134.075 598.694 101.256C565.875 68.4374 521.363 50 474.95 50H475Z" fill="white"/>
</svg>
