<svg width="800" height="800" viewBox="0 0 800 800" fill="none" xmlns="http://www.w3.org/2000/svg">
<path d="M428 4.19995C333.6 4.24995 253.4 62.4499 215.05 145.6L212.3 151.25L206.25 151.75C119 158.1 50 233.6 50 325.4C50 421.35 125 500 217.85 500H624.1C693.7 500 750 440.9 750 369.25C750 314.9 717.35 269.25 671.1 249.6L665.05 247.1L664.55 240.6C658.6 109.7 555.75 4.29995 428.1 4.19995H428ZM428 54.2C528.2 54.25 609.75 136.8 614.55 242.85V243.65L617.55 281.05L651.4 295.6V295.7C679.9 307.8 700.05 334.95 700.05 369.2C700.05 414.7 665.45 450 624.15 450H218C153.45 450 100 395.25 100 325.4C100 258.7 149.4 206 209.9 201.55L245.15 199.1L260.4 166.7V166.6C291.3 99.4499 354 54.25 427.95 54.2H428Z" fill="white"/>
<path d="M400.15 800C388.28 799.99 376.581 797.165 366.014 791.757C355.447 786.348 346.314 778.51 339.365 768.886C332.415 759.263 327.848 748.128 326.037 736.396C324.227 724.665 325.225 712.671 328.95 701.4C328.95 700.65 329.45 699.9 329.65 699.15C331.55 692.8 359.55 600.9 400.25 518.45V518.55C428.182 577.756 451.908 638.858 471.25 701.4C474.976 712.675 475.974 724.673 474.161 736.409C472.348 748.144 467.776 759.282 460.821 768.907C453.866 778.531 444.726 786.368 434.153 791.774C423.58 797.179 411.875 799.998 400 800H400.15ZM600 700C592.085 700.004 584.282 698.13 577.232 694.53C570.183 690.931 564.089 685.709 559.452 679.295C554.814 672.88 551.766 665.457 550.557 657.634C549.349 649.812 550.015 641.815 552.5 634.3C552.5 633.8 553 633.3 553 632.8C554.25 628.55 573 567.3 600.05 512.3C629.05 572.35 647.45 634.25 647.45 634.25C649.935 641.765 650.601 649.762 649.393 657.584C648.184 665.407 645.136 672.83 640.498 679.245C635.861 685.659 629.767 690.881 622.717 694.48C615.668 698.08 607.865 699.954 599.95 699.95L600 700ZM200 700C192.085 700.004 184.282 698.13 177.232 694.53C170.183 690.931 164.089 685.709 159.452 679.295C154.814 672.88 151.766 665.457 150.557 657.634C149.349 649.812 150.015 641.815 152.5 634.3C152.5 633.8 153 633.3 153 632.8C154.25 628.55 173 567.3 200.05 512.3C218.706 551.781 234.545 592.583 247.45 634.3C249.935 641.815 250.601 649.812 249.393 657.634C248.184 665.457 245.136 672.88 240.498 679.295C235.861 685.709 229.767 690.931 222.717 694.53C215.668 698.13 207.915 700.004 200 700Z" fill="white"/>
</svg>
