<svg width="800" height="800" viewBox="0 0 800 800" fill="none" xmlns="http://www.w3.org/2000/svg">
<path d="M428 4.19995C333.6 4.24995 253.4 62.4499 215.05 145.6L212.3 151.25L206.25 151.75C119 158.1 50 233.6 50 325.4C50 421.35 125 500 217.85 500H624.1C693.7 500 750 440.9 750 369.25C750 314.9 717.35 269.25 671.1 249.6L665.05 247.1L664.55 240.6C658.6 109.7 555.75 4.29995 428.1 4.19995H428ZM428 54.2C528.2 54.25 609.75 136.8 614.55 242.85V243.65L617.55 281.05L651.4 295.6V295.7C679.9 307.8 700.05 334.95 700.05 369.2C700.05 414.7 665.45 450 624.15 450H218C153.45 450 100 395.25 100 325.4C100 258.7 149.4 206 209.9 201.55L245.15 199.1L260.4 166.7V166.6C291.3 99.4499 354 54.25 427.95 54.2H428Z" fill="white"/>
<path d="M450 575L400 585V646.7L342.25 613.35L317.25 656.65L375 690L317.25 723.35L342.25 766.65L400 733.3V800H450V733.3L507.75 766.65L532.75 723.35L475 690L532.75 656.65L507.75 613.35L450 646.7V575ZM224.2 545.05L189.8 551.95V594.45L150 571.45L132.8 601.3L172.55 624.3L132.8 647.2L150 677.05L189.8 654.05V700H224.2V654.05L264 677.05L281.2 647.2L241.45 624.25L281.2 601.25L264 571.45L224.2 594.45V545.05ZM675 522.15L635.5 530.05V578.8L589.8 552.45L570.05 586.7L615.7 613.05L570.05 639.4L589.8 673.65L635.5 647.25V700H675V647.25L720.65 673.65L740.45 639.4L694.75 613.05L740.45 586.7L720.65 552.45L675 578.8V522.15Z" fill="white"/>
</svg>
