<svg width="800" height="800" viewBox="0 0 800 800" fill="none" xmlns="http://www.w3.org/2000/svg">
<g clip-path="url(#clip0_41_18)">
<path d="M375 0V100H425V0H375ZM221.7 41.1L178.3 66.1L228.4 152.75L271.7 127.75L221.7 41.1ZM578.3 41.1L528.3 127.75L571.7 152.75L621.7 66.1L578.3 41.1ZM400 150C333.696 150 270.107 176.339 223.223 223.223C176.339 270.107 150 333.696 150 400C150 466.304 176.339 529.893 223.223 576.777C270.107 623.661 333.696 650 400 650C466.304 650 529.893 623.661 576.777 576.777C623.661 529.893 650 466.304 650 400C650 333.696 623.661 270.107 576.777 223.223C529.893 176.339 466.304 150 400 150ZM66.1 178.3L41.1 221.7L127.75 271.7L152.75 228.3L66.1 178.3ZM733.9 178.3L647.25 228.3L672.25 271.7L758.9 221.7L733.9 178.3ZM400 200C453.043 200 503.914 221.071 541.421 258.579C578.929 296.086 600 346.957 600 400C600 453.043 578.929 503.914 541.421 541.421C503.914 578.929 453.043 600 400 600C346.957 600 296.086 578.929 258.579 541.421C221.071 503.914 200 453.043 200 400C200 346.957 221.071 296.086 258.579 258.579C296.086 221.071 346.957 200 400 200ZM0 375V425H100V375H0ZM700 375V425H800V375H700ZM127.75 528.3L41.1 578.3L66.1 621.7L152.75 571.6L127.75 528.3ZM672.25 528.3L647.25 571.7L733.9 621.7L758.9 578.3L672.25 528.3ZM228.3 647.3L178.3 733.9L221.7 758.9L271.7 672.25L228.3 647.3ZM571.7 647.3L528.3 672.3L578.3 758.9L621.7 733.9L571.7 647.3ZM375 700V800H425V700H375Z" fill="white"/>
</g>
<defs>
<clipPath id="clip0_41_18">
<rect width="800" height="800" fill="white"/>
</clipPath>
</defs>
</svg>
